<?xml version="1.0" encoding="UTF-8"?>
<svg width="278px" height="44px" viewBox="0 0 278 44" version="1.1" xmlns="http://www.w3.org/2000/svg" xmlns:xlink="http://www.w3.org/1999/xlink">
    <!-- Generator: Sketch 60.1 (88133) - https://sketch.com -->
    <title>logo</title>
    <desc>Created with Sketch.</desc>
    <defs>
        <linearGradient x1="98.7685531%" y1="20.9059181%" x2="-32.4168982%" y2="81.1347424%" id="linearGradient-1">
            <stop stop-color="#FA816E" offset="0%"></stop>
            <stop stop-color="#F74A5C" offset="41.473%"></stop>
            <stop stop-color="#F51D2C" offset="100%"></stop>
        </linearGradient>
    </defs>
    <g id="页面-1" stroke="none" stroke-width="1" fill="none" fill-rule="evenodd">
        <g id="登录" transform="translate(-581.000000, -162.000000)">
            <g id="编组" transform="translate(581.000000, 162.000000)">
                <g id="logo">
                    <g id="编组-3">
                        <line x1="20.3033708" y1="22.8148148" x2="20.3033708" y2="42.3703704" id="路径-3" stroke="#1890FF" stroke-width="3"></line>
                        <path d="M3.24853933,13.037037 L17.6231924,22.9271212 C18.9577774,23.8453456 20.7144179,23.8679555 22.072194,22.9843847 L37.3582022,13.037037 L37.3582022,13.037037" id="路径-2" stroke="#1890FF" stroke-width="3"></path>
                        <path d="M3.19490125,12.0497712 C2.14315815,12.6828994 1.5,13.8207685 1.5,15.0483739 L1.5,28.9516261 C1.5,30.1792315 2.14315815,31.3171006 3.19490125,31.9502288 L18.498272,41.1625513 C19.6088234,41.831081 20.9979182,41.831081 22.1084695,41.1625513 L37.4118403,31.9502288 C38.4635834,31.3171006 39.1067416,30.1792315 39.1067416,28.9516261 L39.1067416,15.0483739 C39.1067416,13.8207685 38.4635834,12.6828994 37.4118403,12.0497712 L22.1084695,2.8374487 C20.9979182,2.16891905 19.6088234,2.16891905 18.498272,2.8374487 L3.19490125,12.0497712 Z" id="路径" stroke="#1890FF" stroke-width="3"></path>
                        <line x1="8.58988764" y1="24.3571429" x2="13.9601479" y2="28.0073459" id="路径-4" stroke="url(#linearGradient-1)" stroke-width="2" stroke-linecap="round"></line>
                    </g>
                    <path d="M69.9511069,17.1111111 C71.8584876,16.0495238 73.2890231,14.792381 74.3268625,13.4514286 L82.6295782,13.4514286 C82.8539759,13.4514286 82.9381251,13.5073016 82.8259262,13.7587302 C82.4612799,14.5688889 82.0405342,15.4069841 81.5917387,16.2171429 L84.9577046,16.2171429 C85.3504006,15.3790476 85.7150469,14.5130159 86.0516435,13.6749206 C86.3040909,13.0603175 86.4723892,12.4177778 86.4443395,11.8590476 C86.4162898,11.3003175 85.9674943,11.0768254 85.0979531,11.0768254 L75.7012986,11.0768254 C75.953746,10.5180952 76.1220443,9.95936508 76.2342431,9.42857143 L73.2048739,9.42857143 C72.7280288,10.9650794 71.9706864,12.3060317 70.4840515,13.367619 L69.9511069,17.1111111 Z M69.8108584,13.5352381 C68.6327703,11.9707937 67.7071297,10.6857143 66.8375886,9.45650794 L63.5838216,9.45650794 C64.4814125,11.0209524 65.2387548,12.1663492 66.1363457,13.5352381 L69.8108584,13.5352381 Z M85.6589475,21.2736508 C83.5552188,19.6253968 81.9283353,18.1447619 80.385601,16.7479365 L78.1416238,16.7479365 C78.8148169,15.8539683 79.403861,14.9879365 79.7404575,14.1777778 L76.4305912,14.1777778 C75.2525031,16.775873 72.5316807,19.3460317 68.1839749,21.1339683 L73.3170728,21.1339683 C74.6354094,20.3796825 76.346442,18.8711111 77.6928283,17.2787302 C79.0672644,18.7034921 80.3014519,20.0444444 81.563689,21.2736508 L85.6589475,21.2736508 Z M65.0985062,20.8825397 C66.7253897,18.9269841 68.2120246,16.8038095 69.7267092,14.4292063 L66.2765943,14.4292063 C65.0424068,16.3847619 63.1630759,18.7593651 61.1995958,20.8825397 L65.0985062,20.8825397 Z M65.7716994,31.3307937 L66.8656383,24.4584127 L79.2636124,24.4584127 C79.600209,24.4584127 79.6843581,24.5980952 79.6282587,24.8774603 L78.5343198,30.9396825 L81.6197885,30.9396825 L82.7417771,24.2349206 C82.9942245,22.6984127 82.5454291,22.055873 80.778297,22.055873 L64.2570148,22.055873 L62.7423301,31.3307937 L65.7716994,31.3307937 Z M65.911948,34.5714286 C68.66082,33.2863492 71.2413938,31.6939683 72.699979,30.0736508 C74.57931,31.6660317 76.2342431,33.0628571 78.4221209,34.5714286 L83.7235171,34.5714286 C80.0770541,32.504127 77.2720826,30.688254 75.2244534,29.095873 L73.4012219,29.095873 C74.1024648,27.9225397 74.6354094,26.4698413 74.8317574,25.2126984 L71.6060401,25.2126984 C71.2694436,26.8330159 70.8486978,27.7269841 69.8389081,28.9003175 C67.6229806,31.4704762 63.1630759,33.3142857 59.3483146,34.5714286 L65.911948,34.5714286 Z M114.908567,14.3174603 L115.301263,11.8590476 L105.680211,11.8590476 C105.315565,10.9371429 105.007018,10.0711111 104.81067,9.42857143 L101.023958,9.42857143 C101.276406,10.1269841 101.556903,10.9930159 101.921549,11.8590476 L92.2443973,11.8590476 L91.9078007,14.3174603 L114.908567,14.3174603 Z M92.1041487,34.5714286 C93.7310322,30.3530159 94.8530208,26.1625397 95.4701145,22.4749206 L114.571971,22.4749206 L114.936617,20.0165079 L108.260785,20.0165079 C109.326674,18.4520635 110.392563,16.72 111.318204,15.0996825 L107.559542,15.0996825 C106.858299,16.552381 105.904609,18.2565079 104.78262,20.0165079 L92.468795,20.0165079 C92.1321984,23.6203175 91.0663092,28.3695238 88.4015863,34.5714286 L92.1041487,34.5714286 Z M101.7813,19.4019048 C100.82761,17.8095238 100.154417,16.5803175 99.4531741,15.0996825 L96.1152579,15.0996825 C96.8165008,16.72 97.4335946,18.0330159 98.1628872,19.4019048 L101.7813,19.4019048 Z M122.700155,15.6304762 C123.261149,14.9320635 123.878243,14.0939683 124.523386,13.1720635 L125.729524,13.1720635 C125.953922,13.9263492 126.178319,14.5409524 126.402717,15.0438095 L129.712583,15.0438095 C129.488186,14.6806349 129.06744,13.9263492 128.758893,13.1720635 L132.461456,13.1720635 L132.854152,10.9371429 L126.06612,10.9371429 C126.402717,10.4342857 126.711264,9.93142857 127.019811,9.42857143 L123.625795,9.42857143 C122.559906,11.272381 120.764724,13.7587302 119.053692,15.6304762 L122.700155,15.6304762 Z M141.633712,15.3231746 C141.353215,14.7365079 140.93247,13.9542857 140.651972,13.1720635 L144.85943,13.1720635 L145.196026,10.9371429 L137.678703,10.9371429 C138.015299,10.4342857 138.351896,9.93142857 138.660443,9.42857143 L135.294477,9.42857143 C134.228588,11.1885714 132.713903,13.0603175 130.890672,14.9320635 L134.621284,14.9320635 C135.098129,14.3733333 135.574974,13.7866667 136.051819,13.1720635 L137.538454,13.1720635 C137.790901,13.9263492 138.043349,14.6247619 138.323846,15.3231746 L141.633712,15.3231746 Z M140.006829,34.5714286 L140.623923,29.6266667 C140.764171,28.4533333 140.203177,28.0622222 138.716542,28.0622222 L124.10264,28.0622222 L124.298988,26.4977778 L139.445835,26.4977778 L140.147078,21.832381 C140.175127,21.5809524 140.175127,21.3574603 140.119028,21.1619048 L142.980099,21.1619048 L143.372795,18.8152381 C143.681342,16.9714286 143.316695,16.552381 141.437364,16.552381 L133.751742,16.552381 C133.555394,16.1053968 133.359046,15.6863492 133.190748,15.3511111 L129.908931,15.3511111 C130.02113,15.7142857 130.189429,16.1333333 130.357727,16.552381 L119.670785,16.552381 L118.997592,21.1619048 L121.914763,21.1619048 L119.951283,34.5714286 L140.006829,34.5714286 Z M139.95073,20.8266667 C139.698282,20.5193651 139.193387,20.3796825 138.407995,20.3796825 L122.251359,20.3796825 L122.447707,18.7873016 L139.89463,18.7873016 C140.203177,18.7873016 140.315376,18.8990476 140.259276,19.1784127 L139.95073,20.8266667 Z M136.556714,24.3746032 L124.607535,24.3746032 L124.859983,22.5028571 L136.332316,22.5028571 C136.696963,22.5028571 136.809161,22.6425397 136.781112,22.9219048 L136.556714,24.3746032 Z M137.145758,32.4203175 L123.485547,32.4203175 L123.794094,30.1853968 L136.92136,30.1853968 C137.286007,30.1853968 137.398205,30.3809524 137.370156,30.5485714 L137.145758,32.4203175 Z M170.630885,34.5714286 L170.995531,32.2526984 L164.319699,32.2526984 L164.852643,28.5371429 L170.294288,28.5371429 L170.630885,26.3022222 L165.16119,26.3022222 L165.581936,23.0895238 L171.023581,23.0895238 L172.678514,11.7473016 C172.902912,10.2107937 172.538265,9.87555556 170.827233,9.87555556 L159.214651,9.87555556 L157.251171,23.0895238 L162.664766,23.0895238 L162.21597,26.3022222 L156.774325,26.3022222 L156.409679,28.5371429 L161.879374,28.5371429 L161.346429,32.2526984 L154.586448,32.2526984 L154.221801,34.5714286 L170.630885,34.5714286 Z M145.862986,32.448254 C148.611858,31.6939683 152.34247,30.4088889 155.399889,29.2914286 L155.792585,26.5536508 C154.698646,26.9447619 153.548608,27.3638095 152.42662,27.7269841 L153.40836,21.2457143 L156.016983,21.2457143 L156.381629,18.8711111 L153.773006,18.8711111 L154.642547,13.0603175 L157.33532,13.0603175 L157.699966,10.6857143 L148.948455,10.6857143 L148.611858,13.0603175 L151.641227,13.0603175 L150.771686,18.8711111 L148.135013,18.8711111 L147.770367,21.2457143 L150.43509,21.2457143 L149.313101,28.7606349 C148.191113,29.1238095 147.153273,29.4311111 146.227632,29.6825397 L145.862986,32.448254 Z M163.786754,15.3790476 L161.26228,15.3790476 L161.767175,12.0546032 L164.263599,12.0546032 L163.786754,15.3790476 Z M169.256449,15.3790476 L166.647825,15.3790476 L167.12467,12.0546032 L169.424747,12.0546032 C169.677194,12.0546032 169.733294,12.1663492 169.705244,12.3619048 L169.256449,15.3790476 Z M162.973312,20.9104762 L160.392739,20.9104762 L160.925683,17.4742857 L163.478207,17.4742857 L162.973312,20.9104762 Z M168.471057,20.9104762 L165.890483,20.9104762 L166.367328,17.4742857 L168.975951,17.4742857 L168.471057,20.9104762 Z M188.716718,34.5714286 L189.894806,25.408254 L194.326661,25.408254 L195.027904,24.0114286 C195.504749,24.6819048 195.981594,25.3244444 196.486489,25.9949206 L200.385399,25.9949206 C198.870715,24.2069841 197.608477,22.7263492 195.953544,20.3238095 L192.47538,20.3238095 C193.204672,21.4133333 193.821766,22.3073016 194.38276,23.1174603 L185.294652,23.1174603 C189.614309,21.5250794 194.41081,18.3403175 199.431709,15.2114286 L194.326661,15.2114286 C193.485169,15.7701587 192.222932,16.552381 190.736297,17.4742857 L184.873907,17.4742857 C187.202033,16.4965079 189.44601,14.7644444 191.633888,13.088254 C194.859605,12.9206349 197.888975,12.7250794 200.413449,12.5015873 L200.806145,9.90349206 C194.579108,10.5180952 186.164194,10.9371429 179.516411,11.0209524 L179.179815,13.5073016 C181.704289,13.4793651 184.340962,13.3955556 186.893486,13.2838095 C184.958056,15.0438095 180.385952,18.2565079 177.749279,19.5974603 L187.145934,19.5974603 C183.667769,21.6088889 179.684709,23.7879365 176.290694,25.408254 L186.584939,25.408254 L185.687348,32.0571429 L181.816488,32.0571429 L182.461631,34.5714286 L188.716718,34.5714286 Z M178.843218,32.9231746 C180.750599,30.8838095 182.657979,28.5650794 183.864117,26.8888889 L180.245704,26.8888889 C179.207864,28.3136508 177.552931,30.2133333 174.635761,32.9231746 L178.843218,32.9231746 Z M199.712206,32.9231746 C197.748726,30.5485714 196.290141,28.4533333 195.280351,26.8888889 L191.830236,26.8888889 C192.924175,28.7326984 194.130313,30.6044444 195.729146,32.9231746 L199.712206,32.9231746 Z M204.193927,26.9168254 C207.111098,26.6933333 210.140467,26.4698413 214.039377,26.0507937 L214.404024,23.76 C212.103947,24.0673016 210.729511,24.1790476 209.551423,24.2907937 C211.76735,21.5530159 213.81498,18.9828571 216.143106,15.6584127 L212.861289,15.6584127 C212.440543,16.3288889 211.963698,17.0552381 211.458803,17.7536508 L209.327025,17.7536508 C210.757561,15.4069841 212.356394,12.5015873 213.871079,9.42857143 L210.617312,9.42857143 C209.018478,13.0603175 207.139147,16.664127 204.979319,19.9885714 L209.85997,19.9885714 C208.036738,22.3911111 206.017159,24.8215873 204.193927,26.9168254 Z M230.167963,22.3911111 C228.849627,20.0165079 227.867887,17.9212698 227.138594,15.9657143 L224.193374,15.9657143 C224.55802,16.9993651 224.922667,18.0330159 225.343412,19.0666667 L219.733469,19.0666667 C220.911557,17.5580952 221.977447,16.1053968 222.903087,14.6526984 L230.588709,14.6526984 L230.953355,12.3060317 L224.866567,12.3060317 C224.55802,11.3003175 224.277523,10.3504762 224.053126,9.45650794 L220.771309,9.45650794 C220.995707,10.4063492 221.220104,11.328254 221.500601,12.3060317 L215.610161,12.3060317 L215.245515,14.6526984 L219.621271,14.6526984 C218.330984,16.7479365 216.73215,18.9828571 214.74062,21.4133333 L225.287313,21.4133333 L225.848307,20.3238095 C226.128804,21.0501587 226.437351,21.7206349 226.717848,22.3911111 L230.167963,22.3911111 Z M216.143106,34.5714286 C218.162685,31.2749206 219.789569,26.8330159 220.603011,22.8939683 L217.517542,22.8939683 C216.984597,26.6095238 215.469913,30.632381 212.103947,34.5714286 L216.143106,34.5714286 Z M227.643489,34.5714286 L228.625229,32.0571429 L224.137275,32.0571429 L225.651959,22.9498413 L222.62259,22.9498413 L220.68716,34.5714286 L227.643489,34.5714286 Z M203.408535,33.7333333 C207.167197,32.5879365 210.364865,31.5822222 213.450333,30.3809524 L213.843029,27.7549206 C210.673411,28.9561905 207.083048,30.1015873 203.829281,31.0234921 L203.408535,33.7333333 Z M239.595784,31.9702293 L248.104198,15.5218342 L245.377142,15.5218342 L238.679494,28.6457848 L237.130526,15.5218342 L234.228939,15.5218342 L236.279685,31.9702293 L239.595784,31.9702293 Z M253.815259,31.9702293 L256.716846,15.5218342 L254.011607,15.5218342 L248.382964,18.5855379 L249.539235,20.7149206 C251.197285,19.8240564 252.484455,19.1287478 253.488012,18.4334392 L251.110019,31.9702293 L253.815259,31.9702293 Z M260.638958,31.9702293 L261.206185,28.9065256 L258.151883,28.9065256 L257.584655,31.9702293 L260.638958,31.9702293 Z M271.673231,32.122328 C274.880248,32.122328 275.905621,31.2097354 276.494665,27.885291 L277.672753,21.2798589 C277.890918,19.9978836 278,19.2591182 278,18.6289947 C278,16.1954145 276.691013,15.3914638 273.636711,15.3914638 L271.12782,15.3914638 C267.964435,15.3914638 266.873613,16.3040564 266.284569,19.6285009 L265.106481,26.2122046 C264.8665,27.5159083 264.801051,28.2546737 264.801051,28.8847972 C264.801051,31.296649 266.110037,32.122328 269.142523,32.122328 L271.673231,32.122328 Z M271.389617,29.753933 L270.276978,29.753933 C268.444397,29.753933 267.680821,29.5801058 267.680821,28.3850441 C267.680821,27.8201058 267.898986,26.5381305 268.11715,25.3213404 L268.946175,20.6062787 C269.338871,18.4334392 269.644302,17.7598589 271.389617,17.7598589 L272.524072,17.7598589 C274.356654,17.7598589 275.098413,17.9336861 275.098413,19.1287478 C275.098413,19.6936861 274.902065,20.8235626 274.662084,22.1707231 L273.854875,26.9075132 C273.483996,29.0803527 273.134933,29.753933 271.389617,29.753933 Z" id="资产管理系统V1.0" fill="#3A3A3A" fill-rule="nonzero"></path>
                </g>
            </g>
        </g>
    </g>
</svg>