<?xml version="1.0" encoding="UTF-8"?>
<svg width="178px" height="28px" viewBox="0 0 178 28" version="1.1" xmlns="http://www.w3.org/2000/svg" xmlns:xlink="http://www.w3.org/1999/xlink">
    <!-- Generator: Sketch 60.1 (88133) - https://sketch.com -->
    <title>logo</title>
    <desc>Created with Sketch.</desc>
    <defs>
        <linearGradient x1="98.7685531%" y1="21.2614433%" x2="-32.4168982%" y2="80.7542807%" id="linearGradient-1">
            <stop stop-color="#FA816E" offset="0%"></stop>
            <stop stop-color="#F74A5C" offset="41.473%"></stop>
            <stop stop-color="#F51D2C" offset="100%"></stop>
        </linearGradient>
    </defs>
    <g id="页面-1" stroke="none" stroke-width="1" fill="none" fill-rule="evenodd">
        <g id="登录" transform="translate(-16.000000, -14.000000)">
            <g id="编组-6">
                <g id="编组" transform="translate(16.000000, 14.000000)">
                    <g id="logo">
                        <g id="编组-3">
                            <line x1="13" y1="14.5185185" x2="13" y2="26.962963" id="路径-3" stroke="#1890FF" stroke-width="3"></line>
                            <path d="M2.08,8.2962963 L10.499823,14.0538199 C11.8302169,14.9635509 13.5766319,14.9859762 14.9299466,14.110706 L23.92,8.2962963 L23.92,8.2962963" id="路径-2" stroke="#1890FF" stroke-width="3"></path>
                            <path d="M3.2030414,7.60939595 C2.14668083,8.24140655 1.5,9.38189442 1.5,10.6128839 L1.5,17.3871161 C1.5,18.6181056 2.14668083,19.7585934 3.2030414,20.390604 L11.2030414,25.1769288 C12.309554,25.8389449 13.690446,25.8389449 14.7969586,25.1769288 L22.7969586,20.390604 C23.8533192,19.7585934 24.5,18.6181056 24.5,17.3871161 L24.5,10.6128839 C24.5,9.38189442 23.8533192,8.24140655 22.7969586,7.60939595 L14.7969586,2.82307117 C13.690446,2.16105508 12.309554,2.16105508 11.2030414,2.82307117 L3.2030414,7.60939595 Z" id="路径" stroke="#1890FF" stroke-width="3"></path>
                            <line x1="5.5" y1="15.5" x2="8.93851199" y2="17.8228565" id="路径-4" stroke="url(#linearGradient-1)" stroke-width="2" stroke-linecap="round"></line>
                        </g>
                        <path d="M44.7888383,10.8888889 C46.0101108,10.2133333 46.9260651,9.41333333 47.590581,8.56 L52.9067084,8.56 C53.0503875,8.56 53.1042671,8.59555556 53.0324276,8.75555556 C52.798949,9.27111111 52.5295507,9.80444444 52.2421924,10.32 L54.3973792,10.32 C54.6488176,9.78666667 54.8822962,9.23555556 55.0978149,8.70222222 C55.2594539,8.31111111 55.3672132,7.90222222 55.3492533,7.54666667 C55.3312934,7.19111111 55.0439352,7.04888889 54.4871786,7.04888889 L48.4706156,7.04888889 C48.6322546,6.69333333 48.740014,6.33777778 48.8118535,6 L46.8721855,6 C46.5668673,6.97777778 46.0819503,7.83111111 45.1300762,8.50666667 L44.7888383,10.8888889 Z M44.6990388,8.61333333 C43.9447235,7.61777778 43.3520471,6.8 42.7952905,6.01777778 L40.7119433,6.01777778 C41.2866598,7.01333333 41.7715768,7.74222222 42.3462933,8.61333333 L44.6990388,8.61333333 Z M54.8463764,13.5377778 C53.4993847,12.4888889 52.4577111,11.5466667 51.4699172,10.6577778 L50.033126,10.6577778 C50.4641634,10.0888889 50.841321,9.53777778 51.0568397,9.02222222 L48.9375728,9.02222222 C48.1832574,10.6755556 46.4411481,12.3111111 43.6573652,13.4488889 L46.944025,13.4488889 C47.7881398,12.9688889 48.8836931,12.0088889 49.7457678,10.9955556 C50.6258024,11.9022222 51.4160375,12.7555556 52.2242325,13.5377778 L54.8463764,13.5377778 Z M41.6817774,13.2888889 C42.723451,12.0444444 43.6753251,10.6933333 44.6451591,9.18222222 L42.4360927,9.18222222 C41.6458576,10.4266667 40.442545,11.9377778 39.1853527,13.2888889 L41.6817774,13.2888889 Z M42.1128147,19.9377778 L42.8132504,15.5644444 L50.7515216,15.5644444 C50.9670403,15.5644444 51.0209199,15.6533333 50.9850002,15.8311111 L50.2845645,19.6888889 L52.2601523,19.6888889 L52.9785479,15.4222222 C53.1401869,14.4444444 52.8528287,14.0355556 51.7213556,14.0355556 L41.1429807,14.0355556 L40.1731466,19.9377778 L42.1128147,19.9377778 Z M42.2026142,22 C43.9626833,21.1822222 45.6149932,20.1688889 46.5489074,19.1377778 C47.75222,20.1511111 48.8118535,21.04 50.2127249,22 L53.607144,22 C51.2723584,20.6844444 49.4763694,19.5288889 48.1652975,18.5155556 L46.9979047,18.5155556 C47.4469019,17.7688889 47.7881398,16.8444444 47.913859,16.0444444 L45.8484717,16.0444444 C45.6329531,17.0755556 45.3635547,17.6444444 44.7169987,18.3911111 C43.2981674,20.0266667 40.442545,21.2 38,22 L42.2026142,22 Z M73.5745502,9.11111111 L73.8259886,7.54666667 L67.6657465,7.54666667 C67.4322679,6.96 67.2347091,6.40888889 67.1089899,6 L64.6844048,6 C64.8460438,6.44444444 65.0256427,6.99555556 65.2591213,7.54666667 L59.0629594,7.54666667 L58.8474407,9.11111111 L73.5745502,9.11111111 Z M58.9731599,22 C60.0148335,19.3155556 60.7332291,16.6488889 61.1283467,14.3022222 L73.3590315,14.3022222 L73.5925101,12.7377778 L69.3180563,12.7377778 C70.0005321,11.7422222 70.6830079,10.64 71.2756843,9.60888889 L68.8690591,9.60888889 C68.4200619,10.5333333 67.8094256,11.6177778 67.09103,12.7377778 L59.2066385,12.7377778 C58.9911198,15.0311111 58.308644,18.0533333 56.6024545,22 L58.9731599,22 Z M65.1693218,12.3466667 C64.5586856,11.3333333 64.1276483,10.5511111 63.678651,9.60888889 L61.5414242,9.60888889 C61.9904214,10.64 62.385539,11.4755556 62.8524961,12.3466667 L65.1693218,12.3466667 Z M78.5634084,9.94666667 C78.9226062,9.50222222 79.3177238,8.96888889 79.7308012,8.38222222 L80.5030765,8.38222222 C80.6467556,8.86222222 80.7904347,9.25333333 80.9341138,9.57333333 L83.0533808,9.57333333 C82.9097017,9.34222222 82.6403033,8.86222222 82.4427445,8.38222222 L84.81345,8.38222222 L85.0648884,6.96 L80.7185951,6.96 C80.9341138,6.64 81.1316726,6.32 81.3292314,6 L79.1560847,6 C78.4736089,7.17333333 77.324176,8.75555556 76.2286227,9.94666667 L78.5634084,9.94666667 Z M90.6863339,9.75111111 C90.506735,9.37777778 90.2373366,8.88 90.0577377,8.38222222 L92.7517212,8.38222222 L92.9672398,6.96 L88.1539894,6.96 C88.3695081,6.64 88.5850268,6.32 88.7825856,6 L86.6273988,6 C85.944923,7.12 84.975089,8.31111111 83.8076961,9.50222222 L86.1963615,9.50222222 C86.5016796,9.14666667 86.8069977,8.77333333 87.1123158,8.38222222 L88.06419,8.38222222 C88.225829,8.86222222 88.387468,9.30666667 88.5670669,9.75111111 L90.6863339,9.75111111 Z M89.6446603,22 L90.0397778,18.8533333 C90.1295773,18.1066667 89.7703795,17.8577778 88.8185053,17.8577778 L79.4614029,17.8577778 L79.5871221,16.8622222 L89.2854625,16.8622222 L89.7344597,13.8933333 C89.7524196,13.7333333 89.7524196,13.5911111 89.7164998,13.4666667 L91.5484086,13.4666667 L91.799847,11.9733333 C91.9974058,10.8 91.7639272,10.5333333 90.5606146,10.5333333 L85.6396049,10.5333333 C85.5138857,10.2488889 85.3881664,9.98222222 85.2804071,9.76888889 L83.1791,9.76888889 C83.2509396,10 83.3586989,10.2666667 83.4664582,10.5333333 L76.6237403,10.5333333 L76.192703,13.4666667 L78.0605315,13.4666667 L76.8033392,22 L89.6446603,22 Z M89.6087405,13.2533333 C89.4471015,13.0577778 89.1238235,12.9688889 88.6209466,12.9688889 L78.2760502,12.9688889 L78.4017694,11.9555556 L89.5728207,11.9555556 C89.7703795,11.9555556 89.842219,12.0266667 89.8062993,12.2044444 L89.6087405,13.2533333 Z M87.4355938,15.5111111 L79.7846809,15.5111111 L79.9463199,14.32 L87.2919147,14.32 C87.5253933,14.32 87.5972328,14.4088889 87.579273,14.5866667 L87.4355938,15.5111111 Z M87.8127515,20.6311111 L79.0662853,20.6311111 L79.2638441,19.2088889 L87.6690724,19.2088889 C87.902551,19.2088889 87.9743905,19.3333333 87.9564306,19.44 L87.8127515,20.6311111 Z M109.252869,22 L109.486347,20.5244444 L105.211893,20.5244444 L105.553131,18.16 L109.03735,18.16 L109.252869,16.7377778 L105.75069,16.7377778 L106.020088,14.6933333 L109.504307,14.6933333 L110.563941,7.47555556 C110.70762,6.49777778 110.474141,6.28444444 109.378588,6.28444444 L101.943194,6.28444444 L100.686001,14.6933333 L104.15226,14.6933333 L103.864902,16.7377778 L100.380683,16.7377778 L100.147205,18.16 L103.649383,18.16 L103.308145,20.5244444 L98.9798118,20.5244444 L98.7463332,22 L109.252869,22 Z M93.3942861,20.6488889 C95.1543553,20.1688889 97.5430206,19.3511111 99.5006486,18.64 L99.752087,16.8977778 C99.0516513,17.1466667 98.3152958,17.4133333 97.5969003,17.6444444 L98.2254964,13.52 L99.8957661,13.52 L100.129245,12.0088889 L98.458975,12.0088889 L99.0157315,8.31111111 L100.739881,8.31111111 L100.973359,6.8 L95.3698739,6.8 L95.1543553,8.31111111 L97.0940233,8.31111111 L96.5372668,12.0088889 L94.8490372,12.0088889 L94.6155586,13.52 L96.3217481,13.52 L95.6033525,18.3022222 C94.8849569,18.5333333 94.220441,18.7288889 93.6277647,18.8888889 L93.3942861,20.6488889 Z M104.870656,9.78666667 L103.254265,9.78666667 L103.577543,7.67111111 L105.175974,7.67111111 L104.870656,9.78666667 Z M108.372834,9.78666667 L106.702564,9.78666667 L107.007882,7.67111111 L108.480593,7.67111111 C108.642232,7.67111111 108.678152,7.74222222 108.660192,7.86666667 L108.372834,9.78666667 Z M104.349819,13.3066667 L102.697509,13.3066667 L103.038747,11.12 L104.673097,11.12 L104.349819,13.3066667 Z M107.869957,13.3066667 L106.217647,13.3066667 L106.522965,11.12 L108.193235,11.12 L107.869957,13.3066667 Z M120.833006,22 L121.587322,16.1688889 L124.424984,16.1688889 L124.873981,15.28 C125.1793,15.7066667 125.484618,16.1155556 125.807896,16.5422222 L128.30432,16.5422222 C127.334486,15.4044444 126.526291,14.4622222 125.466658,12.9333333 L123.239631,12.9333333 C123.706589,13.6266667 124.101706,14.1955556 124.460904,14.7111111 L118.6419,14.7111111 C121.407723,13.6977778 124.478864,11.6711111 127.693684,9.68 L124.424984,9.68 C123.886188,10.0355556 123.077992,10.5333333 122.126118,11.12 L118.372501,11.12 C119.863172,10.4977778 121.299963,9.39555556 122.700835,8.32888889 C124.766222,8.22222222 126.70589,8.09777778 128.32228,7.95555556 L128.573719,6.30222222 C124.586623,6.69333333 119.198656,6.96 114.942163,7.01333333 L114.726644,8.59555556 C116.343034,8.57777778 118.031264,8.52444444 119.665613,8.45333333 C118.426381,9.57333333 115.498919,11.6177778 113.810689,12.4711111 L119.827252,12.4711111 C117.600226,13.7511111 115.049922,15.1377778 112.876775,16.1688889 L119.468055,16.1688889 L118.893338,20.4 L116.414873,20.4 L116.827951,22 L120.833006,22 Z M114.511125,20.9511111 C115.732398,19.6533333 116.95367,18.1777778 117.725945,17.1111111 L115.40912,17.1111111 C114.744604,18.0177778 113.68497,19.2266667 111.817142,20.9511111 L114.511125,20.9511111 Z M127.873283,20.9511111 C126.616091,19.44 125.682176,18.1066667 125.03562,17.1111111 L122.826554,17.1111111 C123.52699,18.2844444 124.299265,19.4755556 125.322979,20.9511111 L127.873283,20.9511111 Z M130.742874,17.1288889 C132.610703,16.9866667 134.550371,16.8444444 137.046795,16.5777778 L137.280274,15.12 C135.807563,15.3155556 134.927529,15.3866667 134.173213,15.4577778 C135.592044,13.7155556 136.903116,12.08 138.393787,9.96444444 L136.29248,9.96444444 C136.023082,10.3911111 135.717764,10.8533333 135.394486,11.2977778 L134.029534,11.2977778 C134.945488,9.80444444 135.969202,7.95555556 136.939036,6 L134.855689,6 C133.831975,8.31111111 132.628663,10.6044444 131.245751,12.72 L134.370772,12.72 C133.203379,14.2488889 131.910267,15.7955556 130.742874,17.1288889 Z M147.373732,14.2488889 C146.529617,12.7377778 145.901021,11.4044444 145.434064,10.16 L143.548276,10.16 C143.781754,10.8177778 144.015233,11.4755556 144.284631,12.1333333 L140.692653,12.1333333 C141.446968,11.1733333 142.129444,10.2488889 142.722121,9.32444444 L147.64313,9.32444444 L147.876609,7.83111111 L143.979313,7.83111111 C143.781754,7.19111111 143.602155,6.58666667 143.458476,6.01777778 L141.357169,6.01777778 C141.500848,6.62222222 141.644527,7.20888889 141.824126,7.83111111 L138.052549,7.83111111 L137.819071,9.32444444 L140.620814,9.32444444 C139.794659,10.6577778 138.770945,12.08 137.495793,13.6266667 L144.248711,13.6266667 L144.607909,12.9333333 C144.787508,13.3955556 144.985067,13.8222222 145.164666,14.2488889 L147.373732,14.2488889 Z M138.393787,22 C139.686899,19.9022222 140.728573,17.0755556 141.24941,14.5688889 L139.273822,14.5688889 C138.932584,16.9333333 137.96275,19.4933333 135.807563,22 L138.393787,22 Z M145.757342,22 L146.385938,20.4 L143.512356,20.4 L144.48219,14.6044444 L142.542522,14.6044444 L141.303289,22 L145.757342,22 Z M130.239997,21.4666667 C132.646623,20.7377778 134.69405,20.0977778 136.669638,19.3333333 L136.921076,17.6622222 C134.891609,18.4266667 132.592743,19.1555556 130.509396,19.7422222 L130.239997,21.4666667 Z M153.41025,20.3446914 L158.858084,9.87753086 L157.111983,9.87753086 L152.823561,18.2291358 L151.831776,9.87753086 L149.973925,9.87753086 L151.286992,20.3446914 L153.41025,20.3446914 Z M162.514806,20.3446914 L164.372657,9.87753086 L162.640525,9.87753086 L159.036574,11.8271605 L159.77692,13.1822222 C160.838549,12.6153086 161.662709,12.1728395 162.305274,11.7303704 L160.782674,20.3446914 L162.514806,20.3446914 Z M166.883937,20.3446914 L167.247126,18.3950617 L165.291493,18.3950617 L164.928305,20.3446914 L166.883937,20.3446914 Z M173.949047,20.4414815 C176.002461,20.4414815 176.658995,19.8607407 177.036153,17.7451852 L177.790468,13.5417284 C177.930156,12.7259259 178,12.2558025 178,11.8548148 C178,10.3061728 177.161872,9.7945679 175.206239,9.7945679 L173.599827,9.7945679 C171.574351,9.7945679 170.87591,10.3753086 170.498753,12.4908642 L169.744437,16.6804938 C169.590781,17.5101235 169.548874,17.9802469 169.548874,18.3812346 C169.548874,19.9160494 170.387002,20.4414815 172.328666,20.4414815 L173.949047,20.4414815 Z M173.767453,18.934321 L173.055044,18.934321 C171.881664,18.934321 171.392756,18.8237037 171.392756,18.0632099 C171.392756,17.7037037 171.532444,16.8879012 171.672132,16.1135802 L172.202947,13.1130864 C172.454385,11.7303704 172.649948,11.3017284 173.767453,11.3017284 L174.49383,11.3017284 C175.66721,11.3017284 176.142149,11.4123457 176.142149,12.1728395 C176.142149,12.5323457 176.01643,13.251358 175.862773,14.108642 L175.345927,17.122963 C175.108458,18.505679 174.884957,18.934321 173.767453,18.934321 Z" id="资产管理系统V1.0" fill="#FFFFFF" fill-rule="nonzero"></path>
                    </g>
                </g>
            </g>
        </g>
    </g>
</svg>