<?xml version="1.0" standalone="no"?><!DOCTYPE svg PUBLIC "-//W3C//DTD SVG 1.1//EN" "http://www.w3.org/Graphics/SVG/1.1/DTD/svg11.dtd"><svg t="1588753108877" class="icon" viewBox="0 0 1024 1024" version="1.1" xmlns="http://www.w3.org/2000/svg" p-id="2894" xmlns:xlink="http://www.w3.org/1999/xlink" width="16" height="16"><defs><style type="text/css"></style></defs><path d="M512 0c282.763636 0 512 229.236364 512 512s-229.236364 512-512 512v-44.218182c258.350545 0 467.781818-209.431273 467.781818-467.781818S770.373818 44.218182 512 44.218182V0z m0 1024C229.236364 1024 0 794.763636 0 512S229.236364 0 512 0v44.218182C253.649455 44.218182 44.218182 253.626182 44.218182 512S253.626182 979.781818 512 979.781818V1024z m5.445818-952.087273a86.411636 86.411636 0 1 1 0.162909 172.846546 86.411636 86.411636 0 0 1-0.232727-172.869818h0.069818zM280.948364 137.541818l17.524363-13.335273 63.627637 86.272-16.64 13.684364-64.512-86.644364z m-50.269091 35.886546l15.872-13.312 69.143272 80.221091-14.94109 13.66109-70.074182-80.570181z m-48.64 54.132363l13.288727-15.918545 82.199273 66.792727-12.311273 16.058182-83.176727-66.932364z m-35.84 55.156364l10.728727-17.710546 91.368727 53.504-9.704727 17.780364-92.392727-53.573818z m-30.580364 59.461818l8.517818-18.920727 97.210182 42.030545-7.493818 18.850909-98.234182-41.960727z m-18.082909 64.069818l4.514909-20.247272 103.656727 21.573818-3.537454 19.898182-104.634182-21.224728z m659.781818-268.683636l-17.524363-13.312-63.65091 86.225454 16.663273 13.684364 64.535273-86.597818z m50.269091 35.909818l-15.872-13.312-69.073454 80.197818 14.94109 13.661091 70.027637-80.546909z m48.523636 54.039273l-13.265454-15.918546-82.222546 66.792728 12.334546 16.058181 83.153454-66.932363z m35.84 55.156363l-10.752-17.710545-91.345454 53.504 9.704727 17.780364 92.392727-53.573819z m30.580364 59.461819l-8.517818-18.920728-97.186909 42.053819 7.493818 18.827636 98.210909-41.960727z m18.082909 64.093091l-4.514909-20.247273-103.656727 21.550545 3.514182 19.898182 104.657454-21.201454zM299.752727 673.698909V325.678545c0-19.712 81.058909-133.352727 216.32-20.875636 1.675636-10.123636 135.517091-113.896727 212.130909 27.159273V669.556364s-88.832 24.017455-107.636363 50.152727V374.784s-30.696727-38.679273-45.149091 0v353.28h-139.822546V371.665455s-21.969455-29.277091-37.632 0v344.901818s-50.152727-37.632-98.210909-42.868364z m-12.730182 224.954182h204.939637s39.005091-184.040727-322.024727-223.092364c0 0 15.336727-217.483636-62.743273-188.206545 0 0-0.139636 97.698909-6.539637 140.497454-11.008 73.262545 23.691636 107.752727 45.195637 122.763637 32.558545 22.737455 125.067636 102.027636 141.172363 148.014545z m450.164364 0H532.247273s-39.028364-184.040727 322.024727-223.092364c0 0-15.36-217.483636 62.72-188.206545 0 0 0.139636 97.698909 6.562909 140.497454 11.008 73.262545-23.691636 107.752727-45.195636 122.763637-32.581818 22.737455-125.067636 102.027636-141.195637 148.014545z" p-id="2895"></path></svg>