<?xml version="1.0" encoding="UTF-8"?>
<svg width="26px" height="28px" viewBox="0 0 26 28" version="1.1" xmlns="http://www.w3.org/2000/svg" xmlns:xlink="http://www.w3.org/1999/xlink">
    <title>编组 3</title>
    <defs>
        <linearGradient x1="98.7685531%" y1="21.2614433%" x2="-32.4168982%" y2="80.7542807%" id="linearGradient-1">
            <stop stop-color="#FA816E" offset="0%"></stop>
            <stop stop-color="#F74A5C" offset="41.473%"></stop>
            <stop stop-color="#F51D2C" offset="100%"></stop>
        </linearGradient>
    </defs>
    <g id="页面-1" stroke="none" stroke-width="1" fill="none" fill-rule="evenodd">
        <g id="登录" transform="translate(-16.000000, -14.000000)">
            <g id="编组-6">
                <g id="编组" transform="translate(16.000000, 14.000000)">
                    <g id="logo">
                        <g id="编组-3">
                            <line x1="13" y1="14.5185185" x2="13" y2="26.962963" id="路径-3" stroke="#1890FF" stroke-width="3"></line>
                            <path d="M2.08,8.2962963 L10.499823,14.0538199 C11.8302169,14.9635509 13.5766319,14.9859762 14.9299466,14.110706 L23.92,8.2962963 L23.92,8.2962963" id="路径-2" stroke="#1890FF" stroke-width="3"></path>
                            <path d="M14.7969586,2.82307117 C14.2437023,2.49206312 13.6218512,2.3265591 13,2.3265591 C12.3781488,2.3265591 11.7562977,2.49206312 11.2030414,2.82307117 L3.2030414,7.60939595 C2.14668083,8.24140655 1.5,9.38189442 1.5,10.6128839 L1.5,17.3871161 C1.5,18.6181056 2.14668083,19.7585934 3.2030414,20.390604 L11.2030414,25.1769288 C11.7562977,25.5079369 12.3781488,25.6734409 13,25.6734409 C13.6218512,25.6734409 14.2437023,25.5079369 14.7969586,25.1769288 L22.7969586,20.390604 C23.8533192,19.7585934 24.5,18.6181056 24.5,17.3871161 L24.5,10.6128839 C24.5,9.38189442 23.8533192,8.24140655 22.7969586,7.60939595 L14.7969586,2.82307117 Z" id="路径" stroke="#1890FF" stroke-width="3"></path>
                            <line x1="5.5" y1="15.5" x2="8.93851199" y2="17.8228565" id="路径-4" stroke="url(#linearGradient-1)" stroke-width="2" stroke-linecap="round"></line>
                        </g>
                    </g>
                </g>
            </g>
        </g>
    </g>
</svg>